<?xml version="1.0" encoding="UTF-8" standalone="no"?>
<!-- Created with Inkscape (http://www.inkscape.org/) -->

<svg
   xmlns:dc="http://purl.org/dc/elements/1.1/"
   xmlns:cc="http://creativecommons.org/ns#"
   xmlns:rdf="http://www.w3.org/1999/02/22-rdf-syntax-ns#"
   xmlns:svg="http://www.w3.org/2000/svg"
   xmlns="http://www.w3.org/2000/svg"
   xmlns:sodipodi="http://sodipodi.sourceforge.net/DTD/sodipodi-0.dtd"
   xmlns:inkscape="http://www.inkscape.org/namespaces/inkscape"
   width="214.99474"
   height="284.26218"
   id="svg3974"
   version="1.1"
   inkscape:version="0.48.4 r9939"
   sodipodi:docname="New document 13">
  <defs
     id="defs3976" />
  <sodipodi:namedview
     id="base"
     pagecolor="#ffffff"
     bordercolor="#666666"
     borderopacity="1.0"
     inkscape:pageopacity="0.0"
     inkscape:pageshadow="2"
     inkscape:zoom="1"
     inkscape:cx="144.13152"
     inkscape:cy="183.63408"
     inkscape:document-units="px"
     inkscape:current-layer="layer1"
     showgrid="false"
     fit-margin-top="0"
     fit-margin-left="0"
     fit-margin-right="0"
     fit-margin-bottom="0"
     inkscape:window-width="1280"
     inkscape:window-height="734"
     inkscape:window-x="0"
     inkscape:window-y="27"
     inkscape:window-maximized="1" />
  <metadata
     id="metadata3979">
    <rdf:RDF>
      <cc:Work
         rdf:about="">
        <dc:format>image/svg+xml</dc:format>
        <dc:type
           rdf:resource="http://purl.org/dc/dcmitype/StillImage" />
        <dc:title></dc:title>
      </cc:Work>
    </rdf:RDF>
  </metadata>
  <g
     inkscape:label="Layer 1"
     inkscape:groupmode="layer"
     id="layer1"
     transform="translate(-112.01814,-697.62066)">
    <g
       transform="matrix(1.4143887,0,0,1.4143887,-62.215211,-386.24219)"
       style="display:inline"
       id="g4132">
      <path
         sodipodi:nodetypes="ccccccccccccsccccccc"
         transform="translate(0,652.36218)"
         inkscape:connector-curvature="0"
         id="path3090"
         d="m 266,201 c -1.69942,-13.56488 -3.9154,-35.52644 -5.89286,-40.53571 C 250.13837,137.42364 217.55797,118.04744 193.03571,115 c -5.02202,-0.36369 -9.95258,-0.45299 -14.64285,0.17857 -23.15482,5.08534 -38.24838,19.22834 -47.14286,43.39286 -2.85833,6.60635 -3.49654,14.02611 -4.35714,21.96428 -1.62147,3.73255 -2.72196,7.2116 -2.96429,10.71429 -0.0208,2.7201 0.25965,4.83784 0.71428,6.60714 0.8596,2.42341 2.00759,6.7803 2.67858,10.35715 -1.22651,8.19026 -3.27028,17.3833 -3.03572,27.32142 0.6614,6.34395 -0.0901,18.92728 4.46429,31.78572 1.10076,4.48403 16.73432,22.99122 18.57143,33.92857 2.54638,5.01652 7.27853,9.66511 12.91889,11.20093 8.41914,2.29246 17.45745,2.05925 26.90254,0.72764 24.8483,-7.76169 50.13951,-24.63531 57.67857,-44.96428 l 6.04761,-15.59525 c 2.44048,0.36521 4.38095,0.17809 6.9881,-1.36904 2.33449,-2.93702 8.99798,-11.01202 11.60715,-17.5 6.00965,-15.26918 6.32706,-27.8858 2.26785,-32.125 C 270.75949,200.96266 268.29838,200.30249 266,201 z"
         style="fill:none;stroke:#000000;stroke-width:1.5;stroke-linecap:butt;stroke-linejoin:round;stroke-miterlimit:4;stroke-opacity:1;stroke-dasharray:none" />
      <path
         sodipodi:nodetypes="cccc"
         transform="translate(0,652.36218)"
         inkscape:connector-curvature="0"
         id="path3092"
         d="m 269.39252,227.57009 3.73833,-11.03972 c -0.17909,-9.1109 -2.23599,-11.56409 -5.84113,-8.52804 4.92492,6.27975 0.37441,12.65353 2.1028,19.56776 z"
         style="fill:#000000;fill-opacity:0.09756099;stroke:#000000;stroke-width:1.5;stroke-linecap:butt;stroke-linejoin:round;stroke-miterlimit:4;stroke-opacity:1;stroke-dasharray:none" />
      <path
         sodipodi:nodetypes="cccccccccc"
         transform="translate(0,652.36218)"
         inkscape:connector-curvature="0"
         id="path3094"
         d="m 259.52103,219.68458 c 0.38131,-2.15119 -0.21052,-4.47411 2.6285,-6.19159 4.35918,-0.0344 2.6984,2.56063 3.56309,7.41822 -0.76764,4.93725 2.76474,11.45118 -2.39486,14.77805 -0.85767,0.86059 -2.26141,0.26502 -3.56309,-0.0584 -0.75934,1.67719 -1.51869,2.51297 -2.27803,3.27103 -1.55235,0.68249 -5.35014,1.38712 0.0584,-4.84813 1.60386,-3.95812 0.0219,-5.90415 -1.22664,-8.06075 -0.0889,-1.91402 0.2903,-3.59418 1.28505,-5.1986 0.84124,0.30811 1.39177,-0.19619 1.92758,-1.10981 z"
         style="fill:#000000;fill-opacity:0.09756099;stroke:#000000;stroke-width:1.5;stroke-linecap:butt;stroke-linejoin:round;stroke-miterlimit:4;stroke-opacity:1;stroke-dasharray:none" />
      <path
         transform="translate(0,652.36218)"
         sodipodi:nodetypes="cscccccccc"
         inkscape:connector-curvature="0"
         id="path3096"
         d="m 265.77103,201.16822 c -5.72833,2.35976 -11.38654,8.47932 -11.93556,11.1912 -0.73824,3.6466 -1.45727,2.12387 -4.30276,2.59385 -4.41333,-14.88352 -7.983,-32.60394 -16.47196,-37.38318 -1.81793,-2.01155 -2.98616,-16.11959 -5.02336,-22.66355 -0.14464,-2.84935 -1.3409,-3.50262 -1.86917,-4.43925 -9.69081,-7.92196 -9.88046,-6.87712 -17.52336,-8.76168 -7.11761,-1.6972 -22.67082,-5.12069 -33.4596,-1.72056 -8.23746,0.52508 -14.3431,-2.56654 -17.99066,-1.63552 -14.57674,0.15861 -23.52884,15.38581 -28.22264,27.77196"
         style="fill:none;stroke:#000000;stroke-width:1.5;stroke-linecap:butt;stroke-linejoin:round;stroke-miterlimit:4;stroke-opacity:1;stroke-dasharray:none" />
      <path
         sodipodi:nodetypes="cccc"
         inkscape:connector-curvature="0"
         id="path3098"
         d="m 152.53345,837.17526 c -24.26751,1.23788 -21.0807,5.50403 -27.76709,11.21496 -0.71173,-4.52519 -0.9853,-14.22665 22.4299,-17.87384 3.95353,-0.23464 5.50703,2.69582 5.33719,6.65888 z"
         style="fill:#000000;fill-opacity:0.76585364;stroke:#000000;stroke-width:1.5;stroke-linecap:butt;stroke-linejoin:round;stroke-miterlimit:4;stroke-opacity:1;stroke-dasharray:none" />
      <path
         sodipodi:nodetypes="cccc"
         inkscape:connector-curvature="0"
         id="path3100"
         d="m 178.09839,825.19587 c -1.57466,0.32191 -3.91627,2.22373 -2.31297,7.43453 22.85283,1.42988 27.21128,-10.52327 46.58975,6.11283 -3.63512,-17.80425 -30.46874,-19.46384 -44.27678,-13.54736 z"
         style="fill:#000000;fill-opacity:0.76585364;stroke:#000000;stroke-width:1.5;stroke-linecap:butt;stroke-linejoin:round;stroke-miterlimit:4;stroke-opacity:1;stroke-dasharray:none" />
      <path
         sodipodi:nodetypes="ccccccccc"
         transform="translate(0,652.36218)"
         inkscape:connector-curvature="0"
         id="path3102"
         d="m 159.09903,195.63292 c -6.35305,11.58194 -6.54079,17.42343 -9.41708,26.10348 -1.4167,2.24276 -2.70911,6.47892 -2.33301,8.25057 -2.9336,1.82588 -1.68888,6.98207 1.34174,8.93146 1.67978,-2.48862 4.89592,-3.96668 7.93017,2.31297 3.15879,1.74014 4.40733,0.0212 6.36065,-0.24782 0.0856,-6.43415 7.78978,-7.19524 11.97787,-0.74345 5.43236,-1.06627 5.71009,-4.32098 5.94762,-10.57357 -2.32381,-5.04602 -6.44482,-7.64 -10.24313,-4.13029"
         style="fill:none;stroke:#000000;stroke-width:1.5;stroke-linecap:butt;stroke-linejoin:round;stroke-miterlimit:4;stroke-opacity:1;stroke-dasharray:none" />
      <path
         transform="translate(0,652.36218)"
         sodipodi:nodetypes="cscscc"
         inkscape:connector-curvature="0"
         id="path3123"
         d="m 155.62957,202.07619 c -2.03257,-2.70795 -4.92053,-3.77392 -7.03393,-4.05439 -8.11687,-1.07717 -10.77876,1.98669 -14.39522,6.0995 -0.74932,0.65903 1.02978,3.99172 1.67662,4.21361 5.1206,1.75652 10.5382,1.39412 16.97228,-1.32828 1.54643,-1.43692 2.14156,-3.19094 2.78025,-4.93044 z"
         style="fill:none;stroke:#000000;stroke-width:1.5;stroke-linecap:butt;stroke-linejoin:round;stroke-miterlimit:4;stroke-opacity:1;stroke-dasharray:none" />
      <path
         sodipodi:nodetypes="csccc"
         transform="translate(0,652.36218)"
         inkscape:connector-curvature="0"
         id="path3127"
         d="m 183.06075,202.1028 c 12.79169,-14.41163 23.47058,-10.03172 28.57474,-5.96923 1.65148,1.31443 1.48798,2.21693 1.44862,4.2169 -1.34102,3.13108 -12.31875,5.93412 -26.68978,3.6298 -1.44541,-0.19317 -2.82273,-1.37278 -3.33358,-1.87747 z"
         style="fill:none;stroke:#000000;stroke-width:1.5;stroke-linecap:butt;stroke-linejoin:round;stroke-miterlimit:4;stroke-opacity:1;stroke-dasharray:none" />
      <path
         sodipodi:nodetypes="ccc"
         inkscape:connector-curvature="0"
         id="path3897"
         d="m 152.9108,855.14953 c -0.63258,-4.75963 -9.07915,-5.55528 -9.91747,0.66083 2.71596,6.49334 9.71515,3.56241 9.91747,-0.66083 z"
         style="fill:#000000;fill-opacity:0.39024389;stroke:#000000;stroke-width:1.5;stroke-linecap:butt;stroke-linejoin:round;stroke-miterlimit:4;stroke-opacity:1;stroke-dasharray:none" />
      <path
         transform="translate(0,652.36218)"
         sodipodi:nodetypes="ccc"
         inkscape:connector-curvature="0"
         id="path3899"
         d="m 195.61085,199.18497 c 1.5897,-7.85826 10.94202,-7.41603 12.63871,-0.74345 0.0905,5.40652 -11.34698,8.01866 -12.63871,0.74345 z"
         style="fill:#000000;fill-opacity:0.39024389;stroke:#000000;stroke-width:1.5;stroke-linecap:butt;stroke-linejoin:round;stroke-miterlimit:4;stroke-opacity:1;stroke-dasharray:none" />
      <path
         transform="translate(0,652.36218)"
         sodipodi:nodetypes="csc"
         inkscape:connector-curvature="0"
         id="path3901"
         d="m 191.23832,263.78505 c -13.42364,-2.28259 -24.91767,1.74398 -36.02222,1.207 -3.00314,-0.14522 -5.97779,-0.62421 -8.95442,-1.65204"
         style="fill:none;stroke:#000000;stroke-width:1.5;stroke-linecap:butt;stroke-linejoin:miter;stroke-miterlimit:4;stroke-opacity:1;stroke-dasharray:none" />
      <path
         sodipodi:nodetypes="ccc"
         inkscape:connector-curvature="0"
         id="path3899-9"
         d="m 198.09649,851.28045 c 0.96444,-4.76745 6.63829,-4.49915 7.66764,-0.45104 0.0549,3.28002 -6.88398,4.86476 -7.66764,0.45104 z"
         style="fill:#000000;fill-opacity:1;stroke:#000000;stroke-width:1.5;stroke-linecap:butt;stroke-linejoin:round;stroke-miterlimit:4;stroke-opacity:1;stroke-dasharray:none;display:inline" />
      <path
         sodipodi:nodetypes="ccc"
         inkscape:connector-curvature="0"
         id="path3897-6"
         d="m 150.76249,855.29509 c -0.35852,-2.69757 -5.14572,-3.14852 -5.62085,0.37454 1.5393,3.68017 5.50618,2.01904 5.62085,-0.37454 z"
         style="fill:#000000;fill-opacity:1;stroke:#000000;stroke-width:1.5;stroke-linecap:butt;stroke-linejoin:round;stroke-miterlimit:4;stroke-opacity:1;stroke-dasharray:none;display:inline" />
      <path
         sodipodi:nodetypes="ccccc"
         transform="translate(0,652.36218)"
         inkscape:connector-curvature="0"
         id="path3941"
         d="m 156,240.75 c -2.29167,-1.17397 -4.58333,-2.40069 -6.875,-2 l 2,-1.75 1.75,0.25 c 2.15046,0.62639 2.59184,1.90323 3.125,3.5 z"
         style="fill:#000000;fill-opacity:0.91219512;stroke:none" />
      <path
         sodipodi:nodetypes="ccccc"
         transform="translate(0,652.36218)"
         inkscape:connector-curvature="0"
         id="path3943"
         d="m 162.875,240.625 c 3.95833,-1.17114 7.91667,-1.24143 11.875,-0.75 l -3,-2.625 c -2.80718,-1.87698 -5.23418,-1.66301 -7.375,0.125 z"
         style="fill:#000000;fill-opacity:0.91219512;stroke:none" />
      <path
         sodipodi:nodetypes="cccccccsccccccccc"
         inkscape:connector-curvature="0"
         id="path3090-8"
         d="m 128.875,817.54968 2.375,-6.61607 c 8.89448,-24.16452 23.98804,-38.30752 47.14286,-43.39286 4.69027,-0.63156 9.62083,-0.54226 14.64285,-0.17857 24.52226,3.04744 57.10266,22.42364 67.07143,45.46429 1.97746,5.00927 4.19344,26.97083 5.89286,40.53571 l -0.22897,0.16822 c -5.72833,2.35976 -11.38654,8.47932 -11.93556,11.1912 -0.73824,3.6466 -1.45727,2.12387 -4.30276,2.59385 -4.41333,-14.88352 -7.983,-32.60394 -16.47196,-37.38318 -1.81793,-2.01155 -2.98616,-16.11959 -5.02336,-22.66355 -0.14464,-2.84935 -1.3409,-3.50262 -1.86917,-4.43925 -9.69081,-7.92196 -9.88046,-6.87712 -17.52336,-8.76168 -7.11761,-1.6972 -22.67082,-5.12069 -33.4596,-1.72056 -8.23746,0.52508 -14.3431,-2.56654 -17.99066,-1.63552 -14.57674,0.15861 -23.52884,15.38581 -28.22264,27.77196 z"
         style="fill:#000000;fill-opacity:0.14634148;stroke:#000000;stroke-width:1.5;stroke-linecap:butt;stroke-linejoin:round;stroke-miterlimit:4;stroke-opacity:1;stroke-dasharray:none;display:inline" />
    </g>
  </g>
</svg>
